<svg width="92" height="78" viewBox="0 0 92 78" fill="none" xmlns="http://www.w3.org/2000/svg">
<g clip-path="url(#clip0_187_508)">
<path d="M19.835 0.000244141H23.9469V3.47368H27.737V0.000244141H31.849V10.512H27.737V7.00806H23.9827V10.512H19.835V0.000244141ZM37.2839 3.50415H33.6546V0.000244141H45.0429V3.50415H41.3958V10.512H37.2839V3.50415ZM46.8486 0.000244141H51.1572L53.8031 3.7022L56.4491 0.000244141H60.7577V10.512H56.6457V5.30181L53.7674 9.07993L50.889 5.30181V10.512H46.8486V0.000244141ZM62.7958 0.000244141H66.9077V7.03853H72.7359V10.512H62.7958" fill="white"/>
<path d="M19.7055 71.7542L13.8058 15.3262H78.6671L72.7674 71.7238L46.1828 78.0003" fill="#E44D26"/>
<path d="M46.2144 73.2004V19.9563H72.7274L67.668 68.0969" fill="#F16529"/>
<path d="M25.8497 26.8582H46.2306V33.7746H34.753L35.5038 40.8586H46.2306V47.7597H28.0666L25.8497 26.8582ZM28.4242 51.2332H36.5765L37.1486 56.7632L46.2306 58.8351V66.0562L29.5684 62.0953" fill="#EBEBEB"/>
<path d="M66.5156 26.8582H46.1704V33.7746H65.7647L66.5156 26.8582ZM65.0317 40.8585H46.1704V47.775H56.1821L55.2346 56.7632L46.1704 58.8351V66.0257L62.797 62.0953" fill="white"/>
</g>
<defs>
<clipPath id="clip0_187_508">
<rect width="91.5353" height="78" fill="white" transform="translate(0.4646)"/>
</clipPath>
</defs>
</svg>
