<svg width="91" height="90" viewBox="0 0 91 90" fill="none" xmlns="http://www.w3.org/2000/svg">
<path d="M0 0H91V90H0V0Z" fill="#F7DF1E"/>
<path d="M23.9273 75.2105L30.8912 71.0423C32.2347 73.3982 33.4568 75.3915 36.3883 75.3915C39.1984 75.3915 40.97 74.3043 40.97 70.0757V41.3186H49.5217V70.1953C49.5217 78.9553 44.3298 82.9426 36.7549 82.9426C29.9139 82.9426 25.9428 79.4385 23.9271 75.2098" fill="black"/>
<path d="M54.1667 74.3043L61.1298 70.3171C62.9628 73.2776 65.3452 75.4523 69.5598 75.4523C73.1031 75.4523 75.3627 73.7002 75.3627 71.2836C75.3627 68.3838 73.0416 67.3566 69.1321 65.6656L66.9947 64.7588C60.8248 62.1615 56.7319 58.8992 56.7319 52.0119C56.7319 45.6685 61.6186 40.8352 69.2545 40.8352C74.6911 40.8352 78.6005 42.7082 81.4101 47.6018L74.7518 51.8305C73.2857 49.2329 71.698 48.2061 69.2547 48.2061C66.7502 48.2061 65.1619 49.7768 65.1619 51.8305C65.1619 54.3679 66.7502 55.3952 70.4149 56.9661L72.5527 57.8722C79.8218 60.9535 83.9147 64.0946 83.9147 71.1628C83.9147 78.7753 77.8673 82.9435 69.7432 82.9435C61.8022 82.9435 56.6708 79.1981 54.1667 74.3043Z" fill="black"/>
</svg>
