<svg width="86" height="66" viewBox="0 0 86 66" fill="none" xmlns="http://www.w3.org/2000/svg">
<path d="M85.655 32.5734C85.655 27.7382 78.5491 23.1559 67.6545 20.3143C70.1687 10.8521 69.0513 3.3241 64.1278 0.913938C62.9929 0.348591 61.666 0.0807953 60.2169 0.0807953V3.39849C61.02 3.39849 61.666 3.53239 62.2072 3.7853C64.5817 4.94575 65.6118 9.36438 64.8087 15.0476C64.6166 16.4461 64.3024 17.919 63.9182 19.4216C60.4962 18.7075 56.76 18.157 52.8316 17.8C50.4746 15.0476 48.0303 12.5482 45.5686 10.3612C51.2603 5.85328 56.6028 3.38361 60.2344 3.38361V0.065918C55.4331 0.065918 49.1477 2.98192 42.7926 8.04028C36.4374 3.01167 30.1521 0.125428 25.3508 0.125428V3.44312C28.9649 3.44312 34.3249 5.89792 40.0166 10.3761C37.5723 12.5631 35.128 15.0476 32.8059 17.8C28.8601 18.157 25.1238 18.7075 21.7018 19.4365C21.3003 17.9487 21.0035 16.5056 20.7939 15.122C19.9734 9.43877 20.986 5.02014 23.343 3.84481C23.8668 3.57702 24.5477 3.458 25.3508 3.458V0.140306C23.8842 0.140306 22.5573 0.408101 21.405 0.973448C16.499 3.38361 15.399 10.8968 17.9306 20.3291C7.07099 23.1856 0 27.753 0 32.5734C0 37.4086 7.10591 41.9908 18.0005 44.8325C15.4863 54.2946 16.6037 61.8226 21.5272 64.2328C22.6621 64.7981 23.989 65.0659 25.4556 65.0659C30.2569 65.0659 36.5422 62.1499 42.8973 57.0915C49.2525 62.1202 55.5378 65.0064 60.3391 65.0064C61.8057 65.0064 63.1326 64.7386 64.2849 64.1733C69.1909 61.7631 70.2909 54.2499 67.7593 44.8176C78.584 41.976 85.655 37.3937 85.655 32.5734ZM62.9231 22.65C62.2771 24.5692 61.474 26.5479 60.5661 28.5267C59.8502 27.3365 59.0995 26.1463 58.2789 24.9561C57.4758 23.7658 56.6203 22.6054 55.7648 21.4747C58.244 21.7871 60.6359 22.174 62.9231 22.65ZM54.9267 38.4946C53.5649 40.5031 52.1682 42.4074 50.7191 44.1778C48.1176 44.3713 45.4813 44.4754 42.8275 44.4754C40.1912 44.4754 37.5548 44.3713 34.9708 44.1927C33.5217 42.4223 32.1075 40.5328 30.7457 38.5393C29.4188 36.5903 28.2141 34.6116 27.1142 32.618C28.1967 30.6244 29.4188 28.6308 30.7283 26.6818C32.0901 24.6734 33.4868 22.7691 34.9359 20.9986C37.5373 20.8052 40.1737 20.7011 42.8275 20.7011C45.4638 20.7011 48.1002 20.8052 50.6842 20.9837C52.1333 22.7542 53.5475 24.6436 54.9093 26.6372C56.2362 28.5862 57.4409 30.5649 58.5408 32.5585C57.4409 34.5521 56.2362 36.5457 54.9267 38.4946ZM60.5661 36.5605C61.5089 38.5541 62.312 40.5477 62.9755 42.4818C60.6883 42.9579 58.2789 43.3596 55.7822 43.672C56.6378 42.5264 57.4933 41.3511 58.2964 40.146C59.0995 38.9558 59.8502 37.7507 60.5661 36.5605ZM42.8624 52.4349C41.2387 51.0066 39.615 49.4147 38.0088 47.6741C39.5801 47.7336 41.1863 47.7782 42.81 47.7782C44.4512 47.7782 46.0749 47.7485 47.6637 47.6741C46.0924 49.4147 44.4687 51.0066 42.8624 52.4349ZM29.8727 43.672C27.3935 43.3596 25.0016 42.9728 22.7145 42.4967C23.3605 40.5775 24.1636 38.5988 25.0715 36.62C25.7873 37.8103 26.538 39.0005 27.3586 40.1907C28.1792 41.3809 29.0172 42.5413 29.8727 43.672ZM42.7751 12.7118C44.3988 14.1401 46.0225 15.732 47.6288 17.4726C46.0575 17.4131 44.4512 17.3685 42.8275 17.3685C41.1863 17.3685 39.5626 17.3983 37.9738 17.4726C39.5452 15.732 41.1689 14.1401 42.7751 12.7118ZM29.8553 21.4747C28.9998 22.6203 28.1443 23.7956 27.3412 25.0007C26.538 26.1909 25.7873 27.3811 25.0715 28.5713C24.1287 26.5777 23.3255 24.5841 22.6621 22.65C24.9492 22.1888 27.3586 21.7871 29.8553 21.4747ZM14.0547 40.1014C7.87412 37.8549 3.87595 34.9091 3.87595 32.5734C3.87595 30.2376 7.87412 27.2769 14.0547 25.0453C15.5562 24.4948 17.1973 24.0039 18.8909 23.5427C19.8861 26.4587 21.1955 29.4937 22.8192 32.6031C21.213 35.6976 19.921 38.7178 18.9433 41.6189C17.2148 41.1577 15.5736 40.6519 14.0547 40.1014ZM23.4478 61.3614C21.0733 60.201 20.0432 55.7823 20.8463 50.0991C21.0384 48.7006 21.3526 47.2277 21.7367 45.7251C25.1588 46.4392 28.895 46.9897 32.8234 47.3468C35.1804 50.0991 37.6246 52.5985 40.0864 54.7855C34.3947 59.2934 29.0522 61.7631 25.4206 61.7631C24.635 61.7482 23.9715 61.6143 23.4478 61.3614ZM64.8611 50.0247C65.6816 55.7079 64.669 60.1266 62.312 61.3019C61.7882 61.5697 61.1073 61.6887 60.3042 61.6887C56.6901 61.6887 51.3302 59.2339 45.6384 54.7558C48.0827 52.5688 50.527 50.0842 52.8491 47.3319C56.7949 46.9748 60.5312 46.4244 63.9532 45.6954C64.3547 47.198 64.669 48.6411 64.8611 50.0247ZM71.5829 40.1014C70.0814 40.6519 68.4402 41.1428 66.7466 41.604C65.7515 38.688 64.442 35.653 62.8183 32.5436C64.4246 29.4491 65.7166 26.4289 66.6943 23.5278C68.4227 23.989 70.0639 24.4948 71.6003 25.0453C77.7809 27.2918 81.779 30.2376 81.779 32.5734C81.7616 34.9091 77.7634 37.8698 71.5829 40.1014Z" fill="#61DAFB"/>
<path d="M42.8116 39.372C47.2182 39.372 50.7904 36.328 50.7904 32.573C50.7904 28.818 47.2182 25.7739 42.8116 25.7739C38.405 25.7739 34.8327 28.818 34.8327 32.573C34.8327 36.328 38.405 39.372 42.8116 39.372Z" fill="#61DAFB"/>
</svg>
