<svg width="41" height="40" viewBox="0 0 41 40" fill="none" xmlns="http://www.w3.org/2000/svg">
<path d="M25.1408 20.0384C24.0155 21.0134 22.5962 21.5836 21.1092 21.6582C19.6221 21.7328 18.1529 21.3074 16.9357 20.4499C15.7185 19.5924 14.8234 18.352 14.3931 16.9266C13.9628 15.5012 14.022 13.9728 14.5613 12.585C15.1007 11.1972 16.0891 10.0299 17.369 9.26912C18.649 8.50837 20.1467 8.19799 21.6235 8.38745C23.1004 8.57691 24.4713 9.25531 25.5177 10.3145C26.5642 11.3737 27.2259 12.7527 27.3975 14.2317C27.9908 17.2484 27.9842 20.8434 26.6242 24.0651C25.1875 27.4651 22.2892 30.3317 17.3408 31.6267C17.1815 31.6701 17.0151 31.6814 16.8514 31.6601C16.6876 31.6387 16.5297 31.5852 16.3868 31.5025C16.2438 31.4198 16.1187 31.3095 16.0186 31.1782C15.9185 31.0468 15.8454 30.897 15.8036 30.7372C15.7617 30.5775 15.752 30.411 15.7748 30.2474C15.7977 30.0839 15.8528 29.9265 15.9368 29.7843C16.0209 29.6422 16.1322 29.5181 16.2645 29.4192C16.3968 29.3204 16.5474 29.2487 16.7075 29.2084C20.9258 28.1034 23.1942 25.7584 24.3208 23.0917C24.7272 22.1144 25.0029 21.0878 25.1408 20.0384Z" fill="url(#paint0_linear_1_530)"/>
<defs>
<linearGradient id="paint0_linear_1_530" x1="27.7733" y1="8.33325" x2="7.42146" y2="20.25" gradientUnits="userSpaceOnUse">
<stop stop-color="#F76680"/>
<stop offset="1" stop-color="#57007B"/>
</linearGradient>
</defs>
</svg>
