<svg width="41" height="40" viewBox="0 0 41 40" fill="none" xmlns="http://www.w3.org/2000/svg">
<path d="M16.4075 20.0384C17.5328 21.0134 18.9521 21.5836 20.4392 21.6582C21.9263 21.7328 23.3955 21.3074 24.6127 20.4499C25.8299 19.5924 26.725 18.352 27.1553 16.9266C27.5856 15.5012 27.5264 13.9728 26.987 12.585C26.4477 11.1972 25.4593 10.0299 24.1793 9.26912C22.8994 8.50837 21.4017 8.19799 19.9248 8.38745C18.448 8.57691 17.0771 9.25531 16.0306 10.3145C14.9842 11.3737 14.3224 12.7527 14.1509 14.2317C13.5575 17.2484 13.5642 20.8434 14.9242 24.0651C16.3609 27.4651 19.2592 30.3317 24.2075 31.6267C24.3669 31.6701 24.5332 31.6814 24.697 31.6601C24.8608 31.6387 25.0187 31.5852 25.1616 31.5025C25.3045 31.4198 25.4297 31.3095 25.5298 31.1782C25.6299 31.0468 25.703 30.897 25.7448 30.7372C25.7866 30.5775 25.7964 30.411 25.7735 30.2474C25.7507 30.0839 25.6956 29.9265 25.6116 29.7843C25.5275 29.6422 25.4161 29.5181 25.2838 29.4192C25.1516 29.3204 25.001 29.2487 24.8409 29.2084C20.6225 28.1034 18.3542 25.7584 17.2275 23.0917C16.8212 22.1144 16.5455 21.0878 16.4075 20.0384Z" fill="url(#paint0_linear_1_533)"/>
<defs>
<linearGradient id="paint0_linear_1_533" x1="13.775" y1="8.33325" x2="34.1269" y2="20.25" gradientUnits="userSpaceOnUse">
<stop stop-color="#F76680"/>
<stop offset="1" stop-color="#57007B"/>
</linearGradient>
</defs>
</svg>
